<svg xmlns="http://www.w3.org/2000/svg" version="1.1" xmlns:xlink="http://www.w3.org/1999/xlink" xmlns:svgjs="http://svgjs.com/svgjs" width="1920" height="1080" preserveAspectRatio="none" viewBox="0 0 1920 1080"><g mask="url(&quot;#SvgjsMask1102&quot;)" fill="none"><rect width="1920" height="1080" x="0" y="0" fill="rgba(248, 254, 154, 1)"></rect><path d="M1780.458,900.687C1881.305,895.946,1962.263,825.983,2011.344,737.758C2058.886,652.299,2070.484,549.91,2023.231,464.291C1974.426,375.859,1881.462,319.966,1780.458,319.406C1678.493,318.84,1586.39,374.715,1532.974,461.571C1476.677,553.112,1455.875,667.768,1508.64,761.39C1562.216,856.452,1671.458,905.811,1780.458,900.687" fill="rgba(4, 52, 255, 0.78)" class="triangle-float1"></path><path d="M2026.782,573.493C2112.312,571.796,2172.738,499.965,2215.164,425.68C2257.143,352.178,2282.901,266.581,2245.406,190.694C2203.776,106.438,2120.697,47.863,2026.782,44.408C1926.841,40.732,1824.454,84.74,1778.404,173.516C1734.967,257.255,1775.229,353.279,1824.994,433.419C1871.29,507.973,1939.04,575.233,2026.782,573.493" fill="rgba(4, 52, 255, 0.78)" class="triangle-float1"></path><path d="M211.789,92.97C241.255,93.1,273.651,89.885,289.364,64.958C305.865,38.781,300.7,4.526,283.941,-21.487C268.511,-45.438,240.28,-55.465,211.789,-55.452C183.326,-55.439,155.066,-45.413,139.755,-21.419C123.264,4.425,119.053,38.337,135.389,64.279C150.925,88.951,182.633,92.842,211.789,92.97" fill="rgba(4, 52, 255, 0.78)" class="triangle-float1"></path><path d="M381.134,449.002C411.622,449.512,442.492,439.994,459.188,414.479C477.491,386.509,482.561,349.429,464.836,321.09C447.899,294.012,413.038,288.187,381.134,289.686C352.249,291.043,324.956,303.596,310.033,328.365C294.617,353.952,292.311,386.205,307.479,411.94C322.436,437.318,351.68,448.509,381.134,449.002" fill="rgba(4, 52, 255, 0.78)" class="triangle-float1"></path><path d="M1475.604,288.955C1510.71,288.181,1540.875,266.325,1558.304,235.84C1575.593,205.599,1578.603,168.844,1561.681,138.396C1544.285,107.095,1511.412,87.452,1475.604,87.037C1439.065,86.614,1404.453,104.821,1386.002,136.361C1367.372,168.207,1367.652,207.817,1386.334,239.633C1404.784,271.054,1439.176,289.758,1475.604,288.955" fill="rgba(4, 52, 255, 0.78)" class="triangle-float3"></path><path d="M799.237,677.302C911.195,674.748,1000.173,590.891,1051.642,491.432C1098.785,400.332,1092.637,294.707,1043.945,204.425C992.327,108.718,907.877,28.067,799.237,23.436C683.239,18.491,572.939,80.992,515.512,181.898C458.664,281.785,468.952,403.687,526.07,503.42C583.564,603.809,683.58,679.94,799.237,677.302" fill="rgba(4, 52, 255, 0.78)" class="triangle-float3"></path><path d="M1105.631,990.598C1149.965,990.067,1180.3,951.757,1203.027,913.688C1226.56,874.269,1248.008,828.209,1226.923,787.428C1204.563,744.18,1154.249,722.731,1105.631,725.31C1061.017,727.677,1025.745,759.776,1004.755,799.215C985.141,836.07,984.642,879.137,1004.109,916.07C1025.089,955.873,1060.64,991.137,1105.631,990.598" fill="rgba(4, 52, 255, 0.78)" class="triangle-float1"></path></g><defs><mask id="SvgjsMask1102"><rect width="1920" height="1080" fill="#ffffff"></rect></mask><style>
            @keyframes float1 {
                0%{transform: translate(0, 0)}
                50%{transform: translate(-10px, 0)}
                100%{transform: translate(0, 0)}
            }

            .triangle-float1 {
                animation: float1 5s infinite;
            }

            @keyframes float2 {
                0%{transform: translate(0, 0)}
                50%{transform: translate(-5px, -5px)}
                100%{transform: translate(0, 0)}
            }

            .triangle-float2 {
                animation: float2 4s infinite;
            }

            @keyframes float3 {
                0%{transform: translate(0, 0)}
                50%{transform: translate(0, -10px)}
                100%{transform: translate(0, 0)}
            }

            .triangle-float3 {
                animation: float3 6s infinite;
            }
        </style></defs></svg>