<svg xmlns="http://www.w3.org/2000/svg" version="1.1" xmlns:xlink="http://www.w3.org/1999/xlink" xmlns:svgjs="http://svgjs.com/svgjs" width="1920" height="1080" preserveAspectRatio="none" viewBox="0 0 1920 1080"><g mask="url(&quot;#SvgjsMask1029&quot;)" fill="none"><rect width="1920" height="1080" x="0" y="0" fill="rgba(255, 255, 255, 1)"></rect><path d="M1010.67 768.98 a9.45 9.45 0 1 0 18.9 0 a9.45 9.45 0 1 0 -18.9 0z" stroke="rgba(248, 255, 75, 1)"></path><path d="M1706.73 927.05L1799.96 927.05L1799.96 1004.63L1706.73 1004.63z" stroke="rgba(248, 255, 75, 1)"></path><path d="M454.02 685.5L480.38 685.5L480.38 711.86L454.02 711.86z" fill="rgba(248, 255, 75, 1)"></path><path d="M956.84 483.32L987.11 483.32L987.11 540.56L956.84 540.56z" fill="rgba(248, 255, 75, 1)"></path><path d="M1378.28 1057.28L1465.22 1057.28L1465.22 1144.22L1378.28 1144.22z" fill="rgba(45, 82, 255, 1)"></path><path d="M994.16 956.89L1053.08 956.89L1053.08 1015.81L994.16 1015.81z" fill="rgba(45, 82, 255, 1)"></path><path d="M207.5 921.36 a29.96 29.96 0 1 0 59.92 0 a29.96 29.96 0 1 0 -59.92 0z" stroke="rgba(248, 255, 75, 1)"></path><path d="M132.21 101.37a91.08 91.08 0 1 0 25.35-180.39z" fill="rgba(248, 255, 75, 1)"></path><path d="M25.7 543.53a7.59 7.59 0 1 0 14.72 3.74z" stroke="rgba(248, 255, 75, 1)"></path><path d="M336.11 745.74a7.98 7.98 0 1 0 15.9 1.4z" stroke="rgba(45, 82, 255, 1)"></path><path d="M1091.25 180.21L1137.62 180.21L1137.62 226.58L1091.25 226.58z" fill="rgba(45, 82, 255, 1)"></path><path d="M1286.4 701.04L1292.75 701.04L1292.75 736.77L1286.4 736.77z" fill="rgba(248, 255, 75, 1)"></path><path d="M428.41 796.63L518.73 796.63L518.73 886.95L428.41 886.95z" fill="rgba(248, 255, 75, 1)"></path><path d="M133.79 667.71 a90.82 90.82 0 1 0 181.64 0 a90.82 90.82 0 1 0 -181.64 0z" fill="rgba(45, 82, 255, 1)"></path><path d="M1763.28 1018.27L1800.42 1018.27L1800.42 1125.35L1763.28 1125.35z" stroke="rgba(45, 82, 255, 1)"></path><path d="M1474.33 827.2L1546.34 827.2L1546.34 928.61L1474.33 928.61z" stroke="rgba(45, 82, 255, 1)"></path><path d="M935.96 999.43 a61.44 61.44 0 1 0 122.88 0 a61.44 61.44 0 1 0 -122.88 0z" fill="rgba(45, 82, 255, 1)"></path><path d="M617.18 488.59a76.34 76.34 0 1 0 98.77-116.43z" fill="rgba(45, 82, 255, 1)"></path><path d="M326.9 629.68a71.15 71.15 0 1 0 119.02 77.99z" stroke="rgba(248, 255, 75, 1)"></path><path d="M1808.3 419.07L1861.83 419.07L1861.83 472.6L1808.3 472.6z" fill="rgba(248, 255, 75, 1)"></path><path d="M1048.7 831.01L1077.01 831.01L1077.01 833.61L1048.7 833.61z" stroke="rgba(45, 82, 255, 1)"></path><path d="M1554.75 153.9L1580.19 153.9L1580.19 231.78L1554.75 231.78z" fill="rgba(45, 82, 255, 1)"></path><path d="M1072.45 1025.75 a23.31 23.31 0 1 0 46.62 0 a23.31 23.31 0 1 0 -46.62 0z" fill="rgba(248, 255, 75, 1)"></path></g><defs><mask id="SvgjsMask1029"><rect width="1920" height="1080" fill="#ffffff"></rect></mask></defs></svg>