<svg xmlns="http://www.w3.org/2000/svg" version="1.1" xmlns:xlink="http://www.w3.org/1999/xlink" xmlns:svgjs="http://svgjs.com/svgjs" width="1920" height="1080" preserveAspectRatio="none" viewBox="0 0 1920 1080"><g mask="url(&quot;#SvgjsMask15267&quot;)" fill="none"><rect width="1920" height="1080" x="0" y="0" fill="rgba(245, 247, 247, 1)"></rect><rect width="216" height="216" clip-path="url(&quot;#SvgjsClipPath15268&quot;)" x="730.48" y="236.72" fill="url(#SvgjsPattern15269)" transform="rotate(118.25, 838.48, 344.72)"></rect><path d="M325.85 767.95a5.6 5.6 0 1 0 7.92 7.93 5.6 5.6 0 1 0-7.92-7.93zM337.16 779.27a5.6 5.6 0 1 0 7.91 7.93 5.6 5.6 0 1 0-7.91-7.93zM348.46 790.6a5.6 5.6 0 1 0 7.91 7.92 5.6 5.6 0 1 0-7.91-7.92zM359.76 801.92a5.6 5.6 0 1 0 7.92 7.93 5.6 5.6 0 1 0-7.92-7.93z" stroke="rgba(0, 21, 255, 1)" stroke-width="1.11"></path><path d="M437.56 184.62 L611.5699999999999 376.21999999999997L690.7830945960866 114.20190540391329z" stroke="rgba(39, 127, 255, 1)" stroke-width="2.56"></path><path d="M1408.06 525.57a5.6 5.6 0 1 0 10.92 2.49 5.6 5.6 0 1 0-10.92-2.49zM1423.66 529.13a5.6 5.6 0 1 0 10.92 2.48 5.6 5.6 0 1 0-10.92-2.48zM1439.26 532.68a5.6 5.6 0 1 0 10.92 2.49 5.6 5.6 0 1 0-10.92-2.49zM1454.86 536.23a5.6 5.6 0 1 0 10.92 2.49 5.6 5.6 0 1 0-10.92-2.49zM1373.31 534.07a5.6 5.6 0 1 0 10.92 2.48 5.6 5.6 0 1 0-10.92-2.48zM1388.91 537.62a5.6 5.6 0 1 0 10.92 2.49 5.6 5.6 0 1 0-10.92-2.49zM1404.51 541.17a5.6 5.6 0 1 0 10.92 2.49 5.6 5.6 0 1 0-10.92-2.49zM1420.11 544.73a5.6 5.6 0 1 0 10.92 2.48 5.6 5.6 0 1 0-10.92-2.48zM1338.55 542.56a5.6 5.6 0 1 0 10.93 2.49 5.6 5.6 0 1 0-10.93-2.49zM1354.16 546.11a5.6 5.6 0 1 0 10.92 2.49 5.6 5.6 0 1 0-10.92-2.49zM1369.76 549.67a5.6 5.6 0 1 0 10.92 2.48 5.6 5.6 0 1 0-10.92-2.48zM1385.36 553.22a5.6 5.6 0 1 0 10.92 2.49 5.6 5.6 0 1 0-10.92-2.49z" stroke="rgba(255, 253, 0, 1)" stroke-width="1"></path><rect width="567" height="567" clip-path="url(&quot;#SvgjsClipPath15270&quot;)" x="1234.84" y="-93.64" fill="url(#SvgjsPattern15271)" transform="rotate(114.64, 1518.34, 189.86)"></rect><rect width="96" height="96" clip-path="url(&quot;#SvgjsClipPath15272&quot;)" x="1713.64" y="385.36" fill="url(#SvgjsPattern15273)" transform="rotate(300.29, 1761.64, 433.36)"></rect><rect width="709.8000000000001" height="709.8000000000001" clip-path="url(&quot;#SvgjsClipPath15274&quot;)" x="128.25" y="490.12" fill="url(#SvgjsPattern15275)" transform="rotate(132.11, 483.15, 845.02)"></rect><path d="M878.72 606.32L865.98 605.02 864.46 592.3 851.72 591 850.2 578.28 837.46 576.98 835.93 564.26M884.33 600.62L871.59 599.31 870.07 586.6 857.33 585.29 855.8 572.58 843.07 571.27 841.54 558.56M889.94 594.91L877.2 593.61 875.68 580.89 862.94 579.59 861.41 566.87 848.67 565.57 847.15 552.85" stroke="rgba(255, 253, 0, 1)" stroke-width="2.85" stroke-dasharray="3, 3"></path></g><defs><mask id="SvgjsMask15267"><rect width="1920" height="1080" fill="#ffffff"></rect></mask><pattern x="0" y="0" width="6" height="6" patternUnits="userSpaceOnUse" id="SvgjsPattern15269"><path d="M3 1L3 5M1 3L5 3" stroke="rgba(241, 255, 96, 1)" fill="none" stroke-width="1"></path></pattern><clipPath id="SvgjsClipPath15268"><circle r="54" cx="838.48" cy="344.72"></circle></clipPath><pattern x="0" y="0" width="11.34" height="11.34" patternUnits="userSpaceOnUse" id="SvgjsPattern15271"><path d="M5.67 1L5.67 10.34M1 5.67L10.34 5.67" stroke="rgba(255, 253, 0, 1)" fill="none" stroke-width="2.45"></path></pattern><clipPath id="SvgjsClipPath15270"><circle r="141.75" cx="1518.34" cy="189.86"></circle></clipPath><pattern x="0" y="0" width="96" height="6" patternUnits="userSpaceOnUse" id="SvgjsPattern15273"><rect width="96" height="3" x="0" y="0" fill="rgba(255, 253, 0, 1)"></rect><rect width="96" height="3" x="0" y="3" fill="rgba(0, 0, 0, 0)"></rect></pattern><clipPath id="SvgjsClipPath15272"><circle r="24" cx="1761.64" cy="433.36"></circle></clipPath><pattern x="0" y="0" width="10.14" height="10.14" patternUnits="userSpaceOnUse" id="SvgjsPattern15275"><path d="M0 10.14L5.07 0L10.14 10.14" stroke="rgba(255, 253, 0, 1)" fill="none"></path></pattern><clipPath id="SvgjsClipPath15274"><circle r="177.45000000000002" cx="483.15" cy="845.02"></circle></clipPath></defs></svg>